<svg width="24" height="20" viewBox="0 0 24 20" fill="none" xmlns="http://www.w3.org/2000/svg">
<path d="M12.9373 8.54868L2.39505 0.175525C1.88355 -0.0821302 1.27304 -0.0542069 0.785658 0.241525C0.295732 0.535988 0 1.06145 0 1.62499V18.3764C0 18.9387 0.295732 19.4628 0.785658 19.7586C1.04966 19.9185 1.3492 19.9997 1.65255 19.9997C1.90766 19.9997 2.16151 19.9413 2.39632 19.8246L12.9386 11.4489C13.4463 10.9717 13.8474 10.6137 13.8474 9.99815C13.8474 9.38257 13.5059 9.0513 12.9373 8.54868Z" fill="#004679"/>
<path d="M23.0909 8.54868L12.5487 0.175525C12.0372 -0.0821302 11.4254 -0.0542069 10.938 0.241525C10.4481 0.535988 10.1523 1.06145 10.1523 1.62499V18.3764C10.1523 18.9387 10.4481 19.4628 10.938 19.7586C11.202 19.9185 11.5015 19.9997 11.8049 19.9997C12.06 19.9997 12.3139 19.9413 12.5487 19.8246L23.0909 11.4489C23.5986 10.9717 23.9997 10.6137 23.9997 9.99815C23.9997 9.38257 23.6596 9.0513 23.0909 8.54868Z" fill="#004679"/>
</svg>
