<svg width="64" height="64" viewBox="0 0 64 64" fill="none" xmlns="http://www.w3.org/2000/svg">
<path d="M32 0C14.32 0 0 14.32 0 32C0 49.68 14.32 64 32 64C49.68 64 64 49.68 64 32C64 14.32 49.68 0 32 0ZM28.48 40C28.48 42 26.88 43.52 24.96 43.52C22.96 43.52 21.44 41.92 21.44 40V24C21.36 22.08 22.96 20.48 24.88 20.48C26.88 20.48 28.48 22.08 28.48 24V40ZM42.64 40C42.64 42 41.04 43.52 39.12 43.52C37.12 43.52 35.6 41.92 35.6 40V24C35.52 22.08 37.12 20.48 39.04 20.48C41.04 20.48 42.64 22.08 42.64 24V40Z" fill="#0094FF"/>
</svg>
