<svg width="24" height="20" viewBox="0 0 24 20" fill="none" xmlns="http://www.w3.org/2000/svg">
<path d="M11.0627 11.4513L21.605 19.8245C22.1165 20.0821 22.727 20.0542 23.2143 19.7585C23.7043 19.464 24 18.9385 24 18.375L24 1.62362C24 1.06135 23.7043 0.537153 23.2143 0.241421C22.9503 0.0814972 22.6508 0.000265121 22.3475 0.000265121C22.0923 0.000265121 21.8385 0.058651 21.6037 0.175421L11.0614 8.55112C10.5537 9.02835 10.1526 9.38627 10.1526 10.0019C10.1526 10.6174 10.4941 10.9487 11.0627 11.4513Z" fill="#004679"/>
<path d="M0.909056 11.4513L11.4513 19.8245C11.9628 20.0821 12.5746 20.0542 13.062 19.7585C13.5519 19.464 13.8477 18.9385 13.8477 18.375L13.8477 1.62362C13.8477 1.06135 13.5519 0.537153 13.062 0.241421C12.798 0.0814972 12.4985 0.000265121 12.1951 0.000265121C11.94 0.000265121 11.6861 0.058651 11.4513 0.175421L0.909056 8.55112C0.401361 9.02835 0.000283241 9.38627 0.000283241 10.0019C0.000283241 10.6174 0.340438 10.9487 0.909056 11.4513Z" fill="#004679"/>
</svg>
