<svg width="25" height="24" viewBox="0 0 25 24" fill="none" xmlns="http://www.w3.org/2000/svg">
<g clip-path="url(#clip0_28_5158)">
<path d="M17.3545 13.2001C16.1545 15.6706 13.6133 17.4353 10.6486 17.4353C6.62505 17.4353 3.23682 14.1177 3.23682 10.0236C3.23682 6.00005 6.48388 2.61182 10.6486 2.61182C12.6251 2.61182 14.5309 3.38829 15.9427 4.80005C16.7898 5.64711 17.3545 6.63535 17.7074 7.69417L19.3309 6.07064C18.8368 5.01182 18.2015 4.09417 17.3545 3.24711C15.5192 1.48241 13.1192 0.423584 10.578 0.423584C5.35447 0.494172 1.04858 4.80005 1.04858 10.0236C1.04858 15.3177 5.35447 19.553 10.578 19.553C15.5192 19.553 19.4721 15.8118 20.0368 11.2236C18.978 12.2118 18.5545 13.2001 17.3545 13.2001Z" fill="white" fill-opacity="0.6"/>
<path d="M23.3545 22.7295C22.2957 23.7884 20.531 23.7884 19.4016 22.7295L16.1545 19.4825C16.931 18.9884 17.7075 18.4237 18.3428 17.7884C19.0487 17.0825 19.6134 16.3766 20.1075 15.5295L23.3545 18.7766C24.4134 19.8354 24.484 21.6001 23.3545 22.7295Z" fill="white" fill-opacity="0.6"/>
<path d="M22.7191 6.6353L21.3779 7.97648L17.7073 11.5765C17.425 11.8588 17.0015 11.8588 16.7191 11.5765L14.3897 9.24707L10.7191 12.9177C10.4368 13.2 10.0132 13.2 9.73088 12.9177L8.10735 11.2941L5.77794 13.6235C5.49558 13.2706 5.21323 12.7765 5.00146 12.3529L7.61323 9.88236C7.89558 9.60001 8.31911 9.60001 8.60146 9.88236L10.225 11.5059L13.8956 7.8353C14.1779 7.55295 14.6015 7.55295 14.8838 7.8353L16.5779 9.52942L17.2132 10.1647L20.9544 6.42354L21.7309 5.64707C22.0132 5.36471 22.4368 5.36471 22.7191 5.64707C23.0015 5.92942 23.0015 6.35295 22.7191 6.6353Z" fill="white" fill-opacity="0.6"/>
</g>
<defs>
<clipPath id="clip0_28_5158">
<rect width="24" height="24" fill="white" transform="translate(0.625)"/>
</clipPath>
</defs>
</svg>
