<svg width="25" height="24" viewBox="0 0 25 24" fill="none" xmlns="http://www.w3.org/2000/svg">
<g clip-path="url(#clip0_22_2869)">
<path d="M17.3545 13.1998C16.1545 15.6704 13.6133 17.4351 10.6486 17.4351C6.62505 17.4351 3.23682 14.1175 3.23682 10.0233C3.23682 5.99981 6.48388 2.61157 10.6486 2.61157C12.6251 2.61157 14.5309 3.38805 15.9427 4.79981C16.7898 5.64687 17.3545 6.6351 17.7074 7.69393L19.3309 6.0704C18.8368 5.01157 18.2015 4.09393 17.3545 3.24687C15.5192 1.48216 13.1192 0.42334 10.578 0.42334C5.35447 0.493928 1.04858 4.79981 1.04858 10.0233C1.04858 15.3175 5.35447 19.5528 10.578 19.5528C15.5192 19.5528 19.4721 15.8116 20.0368 11.2233C18.978 12.2116 18.5545 13.1998 17.3545 13.1998Z" fill="white"/>
<path d="M23.3545 22.7293C22.2957 23.7881 20.531 23.7881 19.4016 22.7293L16.1545 19.4822C16.931 18.9881 17.7075 18.4234 18.3428 17.7881C19.0487 17.0822 19.6134 16.3764 20.1075 15.5293L23.3545 18.7764C24.4134 19.8352 24.484 21.5999 23.3545 22.7293Z" fill="white"/>
<path d="M22.7191 6.63506L21.3779 7.97623L17.7073 11.5762C17.425 11.8586 17.0015 11.8586 16.7191 11.5762L14.3897 9.24682L10.7191 12.9174C10.4368 13.1998 10.0132 13.1998 9.73088 12.9174L8.10735 11.2939L5.77794 13.6233C5.49558 13.2704 5.21323 12.7762 5.00146 12.3527L7.61323 9.88212C7.89558 9.59976 8.31911 9.59976 8.60146 9.88212L10.225 11.5056L13.8956 7.83506C14.1779 7.55271 14.6015 7.55271 14.8838 7.83506L16.5779 9.52918L17.2132 10.1645L20.9544 6.42329L21.7309 5.64682C22.0132 5.36447 22.4368 5.36447 22.7191 5.64682C23.0015 5.92918 23.0015 6.35271 22.7191 6.63506Z" fill="white"/>
</g>
<defs>
<clipPath id="clip0_22_2869">
<rect width="24" height="24" fill="white" transform="translate(0.625)"/>
</clipPath>
</defs>
</svg>
