<svg width="25" height="24" viewBox="0 0 25 24" fill="none" xmlns="http://www.w3.org/2000/svg">
<g clip-path="url(#clip0_25_3592)">
<path d="M8.55589 9.53172C7.8342 9.56066 7.16874 9.9592 6.80488 10.5882L5.58281 9.88141C6.39429 8.4784 8.09307 7.77647 9.69641 8.27958C11.7612 6.36772 14.5211 5.42282 17.3496 5.69252C16.2009 2.37849 13.0507 0 9.34559 0C4.67491 0 0.875 3.79991 0.875 8.47059C0.875 12.1788 3.25636 15.3269 6.56752 16.4746C6.53782 16.1634 6.52206 15.8482 6.52206 15.5294C6.52206 13.2756 7.28098 11.1961 8.55589 9.53172ZM10.7574 4.58776H12.1691V5.99953H10.7574V4.58776ZM5.11029 4.58776H6.52206V5.99953H5.11029V4.58776Z" fill="white" fill-opacity="0.6"/>
<path d="M16.4044 7.05859C11.7337 7.05859 7.93384 10.8585 7.93384 15.5292C7.93384 20.1999 11.7337 23.9998 16.4044 23.9998C21.0751 23.9998 24.875 20.1999 24.875 15.5292C24.875 10.8585 21.0751 7.05859 16.4044 7.05859ZM12.875 11.9998H14.2868V13.4115H12.875V11.9998ZM16.4044 19.7645C15.1485 19.7645 13.9772 19.0886 13.3477 18.0005L14.5697 17.2935C14.9477 17.9468 15.6507 18.3527 16.4044 18.3527C17.1582 18.3527 17.8612 17.9468 18.2392 17.2934L19.4612 18.0002C18.8318 19.0885 17.6604 19.7645 16.4044 19.7645ZM19.9338 13.4115H18.5221V11.9998H19.9338V13.4115Z" fill="white" fill-opacity="0.6"/>
</g>
<defs>
<clipPath id="clip0_25_3592">
<rect width="24" height="24" fill="white" transform="translate(0.875)"/>
</clipPath>
</defs>
</svg>
