<svg width="25" height="24" viewBox="0 0 25 24" fill="none" xmlns="http://www.w3.org/2000/svg">
<g clip-path="url(#clip0_25_3610)">
<path d="M22.229 6.86216C19.059 1.65409 14.2837 5.27741 14.2837 5.27741C13.974 5.51147 13.403 5.70392 13.0149 5.70481L11.7359 5.70571C11.3478 5.70615 10.7768 5.51371 10.4675 5.27965C10.4675 5.27965 5.69177 1.65543 2.52137 6.8635C-0.648135 12.0698 0.629156 17.7397 0.629156 17.7397C0.852928 19.128 1.59048 20.0544 2.98234 19.9381C4.37018 19.8221 7.3826 16.1993 7.3826 16.1993C7.63143 15.9008 8.15282 15.6569 8.53995 15.6569L16.2082 15.6555C16.5957 15.6555 17.1167 15.8994 17.3651 16.1979C17.3651 16.1979 20.3779 19.8208 21.768 19.9367C23.1581 20.0531 23.8974 19.1258 24.1199 17.7384C24.1199 17.7384 25.3989 12.0693 22.229 6.86216ZM9.49321 11.1013H7.84894V12.6861C7.84894 12.6861 7.50075 12.9519 6.96191 12.9452C6.42396 12.9371 6.18049 12.6552 6.18049 12.6552V11.1017H4.62751C4.62751 11.1017 4.43373 10.903 4.38181 10.3799C4.33079 9.85668 4.59619 9.43375 4.59619 9.43375H6.24091V7.78947C6.24091 7.78947 6.57925 7.60822 7.06574 7.62209C7.55266 7.63731 7.90936 7.82035 7.90936 7.82035L7.90264 9.4333H9.45562C9.45562 9.4333 9.72683 9.78149 9.74921 10.2022C9.77159 10.6233 9.49321 11.1013 9.49321 11.1013ZM17.0352 12.9076C16.3151 12.9076 15.7347 12.3253 15.7347 11.6061C15.7347 10.8856 16.3151 10.3047 17.0352 10.3047C17.7522 10.3047 18.3371 10.8856 18.3371 11.6061C18.3371 12.3258 17.7522 12.9076 17.0352 12.9076ZM17.0352 9.32679C16.3151 9.32679 15.7347 8.74498 15.7347 8.02578C15.7347 7.30523 16.3151 6.72432 17.0352 6.72432C17.7522 6.72432 18.3371 7.30523 18.3371 8.02578C18.3371 8.74543 17.7522 9.32679 17.0352 9.32679ZM20.2763 11.249C19.5562 11.249 18.9758 10.6672 18.9758 9.94753C18.9758 9.22743 19.5562 8.64607 20.2763 8.64607C20.9933 8.64607 21.5782 9.22743 21.5782 9.94753C21.5782 10.6672 20.9933 11.249 20.2763 11.249Z" fill="white"/>
</g>
<defs>
<clipPath id="clip0_25_3610">
<rect width="24" height="24" fill="white" transform="translate(0.375)"/>
</clipPath>
</defs>
</svg>
