<svg width="25" height="24" viewBox="0 0 25 24" fill="none" xmlns="http://www.w3.org/2000/svg">
<g clip-path="url(#clip0_28_5171)">
<path d="M22.229 6.86265C19.059 1.65458 14.2837 5.2779 14.2837 5.2779C13.974 5.51196 13.403 5.70441 13.0149 5.7053L11.7359 5.7062C11.3478 5.70664 10.7768 5.5142 10.4675 5.28013C10.4675 5.28013 5.69177 1.65592 2.52137 6.86399C-0.648135 12.0703 0.629156 17.7402 0.629156 17.7402C0.852928 19.1285 1.59048 20.0549 2.98234 19.9385C4.37018 19.8226 7.3826 16.1998 7.3826 16.1998C7.63143 15.9012 8.15282 15.6573 8.53995 15.6573L16.2082 15.656C16.5957 15.656 17.1167 15.8999 17.3651 16.1984C17.3651 16.1984 20.3779 19.8213 21.768 19.9372C23.1581 20.0536 23.8974 19.1263 24.1199 17.7389C24.1199 17.7389 25.3989 12.0698 22.229 6.86265ZM9.49321 11.1018H7.84894V12.6865C7.84894 12.6865 7.50075 12.9524 6.96191 12.9457C6.42396 12.9376 6.18049 12.6557 6.18049 12.6557V11.1022H4.62751C4.62751 11.1022 4.43373 10.9035 4.38181 10.3803C4.33079 9.85717 4.59619 9.43424 4.59619 9.43424H6.24091V7.78996C6.24091 7.78996 6.57925 7.60871 7.06574 7.62258C7.55266 7.6378 7.90936 7.82084 7.90936 7.82084L7.90264 9.43379H9.45562C9.45562 9.43379 9.72683 9.78198 9.74921 10.2027C9.77159 10.6238 9.49321 11.1018 9.49321 11.1018ZM17.0352 12.9081C16.3151 12.9081 15.7347 12.3258 15.7347 11.6066C15.7347 10.8861 16.3151 10.3052 17.0352 10.3052C17.7522 10.3052 18.3371 10.8861 18.3371 11.6066C18.3371 12.3263 17.7522 12.9081 17.0352 12.9081ZM17.0352 9.32727C16.3151 9.32727 15.7347 8.74547 15.7347 8.02626C15.7347 7.30572 16.3151 6.72481 17.0352 6.72481C17.7522 6.72481 18.3371 7.30572 18.3371 8.02626C18.3371 8.74591 17.7522 9.32727 17.0352 9.32727ZM20.2763 11.2495C19.5562 11.2495 18.9758 10.6677 18.9758 9.94802C18.9758 9.22792 19.5562 8.64656 20.2763 8.64656C20.9933 8.64656 21.5782 9.22792 21.5782 9.94802C21.5782 10.6677 20.9933 11.2495 20.2763 11.2495Z" fill="white" fill-opacity="0.6"/>
</g>
<defs>
<clipPath id="clip0_28_5171">
<rect width="24" height="24" fill="white" transform="translate(0.375)"/>
</clipPath>
</defs>
</svg>
