<svg width="24" height="24" viewBox="0 0 24 24" fill="none" xmlns="http://www.w3.org/2000/svg">
<path d="M16.0606 2.45383C16.3418 2.73512 16.4998 3.11658 16.4998 3.51433C16.4998 3.91207 16.3418 4.29354 16.0606 4.57483L8.63557 11.9998L16.0606 19.4248C16.3338 19.7077 16.485 20.0866 16.4816 20.4799C16.4782 20.8732 16.3204 21.2494 16.0423 21.5276C15.7642 21.8057 15.388 21.9634 14.9947 21.9668C14.6014 21.9703 14.2225 21.8191 13.9396 21.5458L5.45407 13.0603C5.17287 12.779 5.01489 12.3976 5.01489 11.9998C5.01489 11.6021 5.17287 11.2206 5.45407 10.9393L13.9396 2.45383C14.2209 2.17262 14.6023 2.01465 15.0001 2.01465C15.3978 2.01465 15.7793 2.17262 16.0606 2.45383Z" fill="white"/>
</svg>
