<svg width="10" height="10" viewBox="0 0 10 10" fill="none" xmlns="http://www.w3.org/2000/svg">
<g clip-path="url(#clip0_22_2429)">
<path d="M2.44364 2.37817H2.5867C2.80413 2.37817 2.98037 2.20186 2.98037 1.9845V0.898143V0.491793C2.98037 0.27443 2.80413 0.0981445 2.5867 0.0981445H2.44364C2.22623 0.0981445 2.04999 0.27443 2.04999 0.491793V0.898163V1.9845C2.04999 2.20186 2.22623 2.37817 2.44364 2.37817Z" fill="black" fill-opacity="0.6"/>
<path d="M7.49299 2.3684H7.63606C7.85346 2.3684 8.02971 2.19212 8.02971 1.97473V0.795027V0.482006C8.02971 0.264665 7.85346 0.0883789 7.63606 0.0883789H7.49299C7.27555 0.0883789 7.0993 0.264665 7.0993 0.482006V0.795027V1.97471C7.09935 2.19212 7.27559 2.3684 7.49299 2.3684Z" fill="black" fill-opacity="0.6"/>
<path d="M9.36004 0.897949H8.34971V2.07764C8.34971 2.47116 8.02957 2.68821 7.63609 2.68821H7.49303C7.0995 2.68821 6.77937 2.36806 6.77937 1.97453V0.897949H3.3004V1.98429C3.3004 2.37781 2.98026 2.69797 2.58674 2.69797H2.44367C2.05017 2.69797 1.73003 2.37781 1.73003 1.98429V0.897949H0.639982C0.287101 0.897949 0 1.18505 0 1.53795V9.27131C0 9.62421 0.287101 9.91131 0.639982 9.91131H9.36004C9.71292 9.91131 10 9.62421 10 9.27131V1.53795C10 1.18507 9.71292 0.897949 9.36004 0.897949ZM9.36004 9.27131H0.640003L0.639982 3.43128H9.36016L9.36049 9.27129C9.36045 9.27129 9.36033 9.27131 9.36004 9.27131Z" fill="black" fill-opacity="0.6"/>
<path d="M5.33041 5.39048H6.47953C6.52508 5.39048 6.56202 5.35355 6.56202 5.308V4.31295C6.56202 4.2674 6.52508 4.23047 6.47953 4.23047H5.33041C5.28486 4.23047 5.24792 4.2674 5.24792 4.31295V5.308C5.24792 5.35355 5.28486 5.39048 5.33041 5.39048Z" fill="black" fill-opacity="0.6"/>
<path d="M7.20574 5.39048H8.35487C8.40042 5.39048 8.43735 5.35355 8.43735 5.308V4.31295C8.43735 4.2674 8.40042 4.23047 8.35487 4.23047H7.20574C7.16019 4.23047 7.12326 4.2674 7.12326 4.31295V5.308C7.12326 5.35355 7.16019 5.39048 7.20574 5.39048Z" fill="black" fill-opacity="0.6"/>
<path d="M1.57977 7.01941H2.72887C2.77442 7.01941 2.81136 6.98248 2.81136 6.93693V5.94186C2.81136 5.89631 2.77442 5.85938 2.72887 5.85938H1.57977C1.53422 5.85938 1.49728 5.89631 1.49728 5.94186V6.93693C1.49728 6.98248 1.53422 7.01941 1.57977 7.01941Z" fill="black" fill-opacity="0.6"/>
<path d="M3.4551 7.01941H4.60421C4.64976 7.01941 4.68669 6.98248 4.68669 6.93693V5.94186C4.68669 5.89631 4.64976 5.85938 4.60421 5.85938H3.4551C3.40955 5.85938 3.37262 5.89631 3.37262 5.94186V6.93693C3.37262 6.98248 3.40955 7.01941 3.4551 7.01941Z" fill="black" fill-opacity="0.6"/>
<path d="M5.33041 7.01941H6.47951C6.52506 7.01941 6.562 6.98248 6.562 6.93693V5.94186C6.562 5.89631 6.52506 5.85938 6.47951 5.85938H5.33041C5.28486 5.85938 5.24792 5.89631 5.24792 5.94186V6.93693C5.24792 6.98248 5.28486 7.01941 5.33041 7.01941Z" fill="black" fill-opacity="0.6"/>
<path d="M7.20574 7.01941H8.35487C8.40042 7.01941 8.43735 6.98248 8.43735 6.93693V5.94186C8.43735 5.89631 8.40042 5.85938 8.35487 5.85938H7.20574C7.16019 5.85938 7.12326 5.89631 7.12326 5.94186V6.93693C7.12326 6.98248 7.16019 7.01941 7.20574 7.01941Z" fill="black" fill-opacity="0.6"/>
<path d="M2.72888 7.48828H1.5798C1.53425 7.48828 1.49731 7.52521 1.49731 7.57076V8.56583C1.49731 8.61138 1.53425 8.64832 1.5798 8.64832H2.7289C2.77445 8.64832 2.81139 8.61138 2.81139 8.56583V7.57076C2.81136 7.52521 2.77443 7.48828 2.72888 7.48828Z" fill="black" fill-opacity="0.6"/>
<path d="M4.60421 7.48828H3.4551C3.40955 7.48828 3.37262 7.52521 3.37262 7.57076V8.56583C3.37262 8.61138 3.40955 8.64832 3.4551 8.64832H4.60421C4.64976 8.64832 4.68669 8.61138 4.68669 8.56583V7.57076C4.68669 7.52521 4.64976 7.48828 4.60421 7.48828Z" fill="black" fill-opacity="0.6"/>
<path d="M6.47956 7.48828H5.33044C5.28489 7.48828 5.24796 7.52521 5.24796 7.57076V8.56583C5.24796 8.61138 5.28489 8.64832 5.33044 8.64832H6.47956C6.52512 8.64832 6.56205 8.61138 6.56205 8.56583V7.57076C6.56205 7.52521 6.52512 7.48828 6.47956 7.48828Z" fill="black" fill-opacity="0.6"/>
<path d="M8.35487 7.48828H7.20574C7.16019 7.48828 7.12326 7.52521 7.12326 7.57076V8.56583C7.12326 8.61138 7.16019 8.64832 7.20574 8.64832H8.35487C8.40042 8.64832 8.43735 8.61138 8.43735 8.56583V7.57076C8.43735 7.52521 8.40042 7.48828 8.35487 7.48828Z" fill="black" fill-opacity="0.6"/>
</g>
<defs>
<clipPath id="clip0_22_2429">
<rect width="10" height="10" fill="white"/>
</clipPath>
</defs>
</svg>
