<svg width="40" height="40" viewBox="0 0 40 40" fill="none" xmlns="http://www.w3.org/2000/svg">
<rect x="0.5" y="0.5" width="39" height="39" rx="19.5" stroke="#00C2FF"/>
<g clip-path="url(#clip0_24_2924)">
<path d="M20 4C11.1636 4 4 11.1634 4 20C4 28.8366 11.1636 36 20 36C28.8364 36 36 28.8366 36 20C36 11.1634 28.8364 4 20 4ZM25.53 20.8481L17.53 25.8481C17.3681 25.9492 17.1841 26 17 26C16.8333 26 16.6663 25.9585 16.5151 25.8745C16.1973 25.6982 16 25.3638 16 25V15C16 14.6362 16.1973 14.3018 16.5151 14.1255C16.833 13.9482 17.2217 13.959 17.53 14.1519L25.53 19.1519C25.8223 19.335 26 19.6553 26 20C26 20.3447 25.8223 20.6651 25.53 20.8481Z" fill="#0094FF"/>
</g>
<defs>
<clipPath id="clip0_24_2924">
<rect width="32" height="32" fill="white" transform="translate(4 4)"/>
</clipPath>
</defs>
</svg>
