<svg width="40" height="40" viewBox="0 0 40 40" fill="none" xmlns="http://www.w3.org/2000/svg">
<g filter="url(#filter0_b_28_4890)">
<rect width="40" height="40" rx="20" fill="white" fill-opacity="0.4"/>
<path d="M25.6373 15.919H23.5903C23.1763 15.919 22.8403 16.2545 22.8403 16.669C22.8403 17.0835 23.1763 17.419 23.5903 17.419H25.6378C26.0513 17.419 26.3878 17.7555 26.3878 18.169V27.977C26.3878 28.3905 26.0513 28.727 25.6378 28.727H14.3633C13.9498 28.727 13.6133 28.3905 13.6133 27.977V18.169C13.6133 17.7555 13.9498 17.419 14.3633 17.419H16.4108C16.8253 17.419 17.1608 17.0835 17.1608 16.669C17.1608 16.2545 16.8253 15.919 16.4108 15.919H14.3633C13.1228 15.919 12.1133 16.9285 12.1133 18.169V27.977C12.1133 29.2175 13.1228 30.227 14.3633 30.227H25.6378C26.8783 30.227 27.8878 29.2175 27.8878 27.977V18.169C27.8873 16.928 26.8783 15.919 25.6373 15.919ZM17.2038 14.405L19.2753 12.3335V22.2075C19.2753 22.6215 19.6108 22.9575 20.0253 22.9575C20.4398 22.9575 20.7753 22.6215 20.7753 22.2075V12.3335L22.8468 14.405C22.9933 14.5515 23.1853 14.6245 23.3773 14.6245C23.5693 14.6245 23.7613 14.5515 23.9078 14.405C24.2008 14.1125 24.2008 13.637 23.9078 13.3445L20.5563 9.99246C20.2628 9.69946 19.7883 9.69946 19.4953 9.99246L16.1433 13.3445C15.8503 13.637 15.8503 14.1125 16.1433 14.405C16.4363 14.698 16.9108 14.698 17.2038 14.405Z" fill="black"/>
</g>
<defs>
<filter id="filter0_b_28_4890" x="-6" y="-6" width="52" height="52" filterUnits="userSpaceOnUse" color-interpolation-filters="sRGB">
<feFlood flood-opacity="0" result="BackgroundImageFix"/>
<feGaussianBlur in="BackgroundImageFix" stdDeviation="3"/>
<feComposite in2="SourceAlpha" operator="in" result="effect1_backgroundBlur_28_4890"/>
<feBlend mode="normal" in="SourceGraphic" in2="effect1_backgroundBlur_28_4890" result="shape"/>
</filter>
</defs>
</svg>
