<svg width="150" height="150" viewBox="0 0 150 150" fill="none" xmlns="http://www.w3.org/2000/svg">
<path d="M73.7619 134.988C74.5078 135.495 75.4919 135.496 76.2366 134.987C124.001 102.374 144.873 76.9538 144.873 47.0844C144.873 35.9138 133.596 17.9633 116.958 10.6353C113.503 9.7069 109.87 9.21149 106.121 9.21149C93.7465 9.21149 82.6336 14.6059 75 23.1694C67.3661 14.6059 22.7572 13.5225 15.2947 20.5564C7.23105 28.1569 2.19727 38.937 2.19727 50.893C2.19727 51.8918 2.22187 52.8876 2.27139 53.8807C2.27139 53.8807 5.55469 72.8162 10.9925 82.2928C24.351 100.293 46.6228 116.543 73.7619 134.988Z" fill="#2BC4F3"/>
<path d="M141.943 45.0336C141.943 74.903 124.001 99.4444 76.2369 132.058C75.4918 132.566 74.5081 132.566 73.7622 132.059C46.6227 113.613 24.8191 97.6573 10.9924 82.2928L23.4987 99.3439C28.8082 105.315 35.1761 111.413 42.6744 117.72C52.2111 124.547 61.0652 129.312 72.5305 137.093C74.0197 138.104 75.9799 138.104 77.4694 137.093C103.066 119.722 118.708 107.467 132.277 92.3604C142.95 78.3726 147.803 64.9192 147.803 50.893C147.803 48.9902 147.675 47.1169 147.428 45.2818C146.992 42.0392 141.943 42.6521 141.943 45.0336Z" fill="#00C2FF"/>
<path d="M75 137.001C80.6086 133.197 91.996 124.53 91.996 124.53L74.7735 101.004H54.2657C50.3631 103.782 47.156 107.473 44.9561 111.766C44.9561 111.766 59.1844 126.271 75 137.001Z" fill="#99E7FF"/>
<path d="M71.5904 95.4776C65.1331 95.4776 59.1539 97.524 54.2657 101.004C58.6037 103.416 63.4913 104.954 68.6912 105.373C71.7586 113.958 78.0196 121.036 86.035 125.174C82.9172 127.431 79.6562 129.723 76.2369 132.058C75.4919 132.566 74.5081 132.566 73.7622 132.059C63.3202 124.962 53.6687 118.234 44.9564 111.765C43.9939 113.643 43.2261 115.637 42.6753 117.719C51.15 124.847 61.0647 132.242 72.5309 140.023C74.02 141.034 75.9803 141.034 77.4697 140.023C86.3499 133.997 94.2967 128.203 101.368 122.585C99.9551 107.38 87.1638 95.4776 71.5904 95.4776Z" fill="#2BC4F3" fill-opacity="0.39"/>
<path d="M103.782 60.038L122.084 66.2736C133.324 62.5271 141.885 52.928 144.156 41.0917C142.998 30.6644 137.271 24.0527 129.826 16.6083C125.961 13.9303 121.621 11.8898 116.957 10.6376C101.718 11.1061 89.351 22.9728 88.0916 37.9997L103.782 60.038Z" fill="#99E7FF"/>
<path d="M129.827 16.6081C136.3 22.824 140.652 31.229 141.698 40.633C139.649 51.3079 131.928 59.9648 121.791 63.3436C116.961 60.2118 111.335 58.2076 105.285 57.7201C102.238 49.1894 96.0348 42.1485 88.0921 37.9995C88.0221 38.8342 87.9846 39.6779 87.9846 40.5305C87.9846 57.0489 101.375 70.4396 117.894 70.4396C132.795 70.4396 145.149 59.5418 147.426 45.2818C145.828 33.4101 139.233 23.1243 129.827 16.6081Z" fill="#2BC4F3" fill-opacity="0.39"/>
<path d="M62.744 121.406C67.3556 118.277 69.2678 115.82 69.2678 113.139C69.2678 111.003 67.537 109.272 65.4015 109.272C64.2537 109.272 63.223 109.773 62.5149 110.567C61.8068 109.773 60.7761 109.272 59.6283 109.272C57.4931 109.272 55.762 111.003 55.762 113.139C55.762 115.82 57.6745 118.277 62.2858 121.406C62.4238 121.5 62.6057 121.5 62.744 121.406Z" fill="#00C2FF"/>
<path d="M23.5095 96.9826C36.1147 96.9826 45.3213 89.0789 45.3213 89.0789V56.8523L15.0497 42.5894C9.77568 45.0419 5.33662 48.9861 2.27393 53.8804C2.75205 63.4655 5.55547 72.8182 10.9944 82.2961C14.4784 86.1673 19.0546 93.0058 23.5095 96.9826Z" fill="#D3EFFD"/>
<path d="M27.6452 39.8135C23.1449 39.8135 18.8781 40.8093 15.0496 42.5894C20.147 50.4583 28.2514 56.1961 37.7362 58.1786C36.4973 61.802 35.822 65.6847 35.822 69.7224C35.822 76.2375 37.578 82.3476 40.634 87.614C35.7405 91.49 29.6063 93.8674 22.9237 94.0529C18.4688 90.0761 14.4786 86.1673 10.9946 82.2961C14.2161 87.9096 18.3613 93.5677 23.4985 99.3442C24.8541 99.5323 26.2381 99.6316 27.6455 99.6316C44.164 99.6316 57.5547 86.2409 57.5547 69.7224C57.5547 53.204 44.1637 39.8135 27.6452 39.8135Z" fill="#B2E5FB"/>
<path d="M98.8628 67.086C98.8628 60.2458 95.0858 51.2891 89.7717 45.975C85.9751 43.0637 81.4607 41.0431 76.5395 40.2237C76.5395 40.2237 44.16 58.9265 43.6977 58.9087C42.3963 62.2629 41.6812 65.9091 41.6812 69.723C41.6812 76.5632 43.9789 82.8656 47.8426 87.9044C53.5692 93.631 62.1137 96.9955 68.9536 96.9955C85.4721 96.9952 98.8628 83.6045 98.8628 67.086Z" fill="#2BC4F3" fill-opacity="0.39"/>
<path d="M89.7721 45.9747C93.6358 51.0134 95.9335 57.3161 95.9335 64.156C95.9335 80.6745 82.5428 94.0652 66.0244 94.0652C59.1841 94.0652 52.8818 91.7674 47.843 87.9038C53.3095 95.0332 61.9126 99.6316 71.5908 99.6316C88.1092 99.6316 101.5 86.2409 101.5 69.7224C101.5 60.0445 96.9015 51.4415 89.7721 45.9747Z" fill="#2BC4F3" fill-opacity="0.39"/>
<path d="M43.6978 58.9084C44.1601 58.9259 44.6238 58.938 45.0905 58.938C58.6699 58.938 70.4815 51.3709 76.5396 40.2234C74.9294 39.9553 73.2765 39.8135 71.5904 39.8135C58.8858 39.8135 48.0328 47.7354 43.6978 58.9084Z" fill="#2BC4F3" fill-opacity="0.39"/>
<path d="M79.9262 61.6016C78.3498 62.6821 60.7731 74.7296 59.1966 75.81C56.5274 77.6396 55.8468 81.2865 57.6761 83.9557C59.5057 86.625 63.1526 87.3055 65.8218 85.4762C67.3983 84.3958 84.975 72.3483 86.5514 71.2678C89.2207 69.4382 89.9012 65.7914 88.0719 63.1221C86.2423 60.4529 82.5955 59.772 79.9262 61.6016Z" fill="#F5FCFF"/>
<path d="M69.429 17.9634C62.3725 12.479 53.5079 9.21179 43.8786 9.21179C32.8143 9.21179 22.7587 13.5243 15.2962 20.5582C15.2218 21.4189 15.1814 22.2896 15.1814 23.1697C15.1814 30.0099 17.4792 36.3123 21.3428 41.3511C25.8633 47.0607 35.6139 50.4422 42.4539 50.4422C58.8522 50.4419 74.0699 37.0681 69.429 17.9634Z" fill="#99E7FF"/>
<path d="M69.4289 17.9633C69.2355 34.3154 55.9222 47.5121 39.5241 47.5121C32.6839 47.5121 26.3815 45.2144 21.3428 41.3507C26.8093 48.4801 35.4123 53.0786 45.0905 53.0786C61.609 53.0786 74.9997 39.6878 74.9997 23.1694C73.3063 21.2695 71.4407 19.5266 69.4289 17.9633Z" fill="#99E7FF"/>
<path d="M64.318 27.5637C58.8949 48.8018 31.287 48.8018 25.8635 27.5637H64.318Z" fill="#F5FCFF"/>
<path d="M128.779 89.8549C128.779 83.0147 124.651 73.7071 120.567 69.6228C115.528 65.7591 109.225 63.4614 102.386 63.4614C85.867 63.4614 72.4763 76.8521 72.4763 93.3705C72.4763 100.211 74.7741 106.513 78.6377 111.552C84.0199 116.934 91.5184 119.574 98.0367 119.752C118.69 105.282 128.779 89.8795 128.779 89.8549Z" fill="#00C2FF"/>
<path d="M132.277 92.3601C131.969 83.0953 127.447 74.8983 120.567 69.6228C124.121 74.2587 126.351 79.9646 126.685 86.1744C126.363 87.198 126.073 88.1226 125.751 89.1462C118.823 98.0103 109.469 107.039 97.3116 116.658C96.4204 117.364 95.293 117.696 94.161 117.596C88.3497 117.084 83.0165 114.909 78.6375 111.552C83.7583 118.23 91.6315 122.687 100.562 123.224C114.273 112.409 124.73 102.251 132.277 92.3601Z" fill="#00C2FF"/>
<path d="M145.272 31.0614C144.723 29.9798 143.401 29.5468 142.319 30.0967C141.237 30.6457 140.805 31.9684 141.354 33.0504C143.316 36.9158 144.603 40.9968 145.206 45.2364C143.203 56.9513 133.713 66.1922 121.995 67.9356C116.562 63.747 109.755 61.2644 102.386 61.2644C98.2729 61.2644 94.3389 62.0426 90.7219 63.4579C90.5013 62.9045 90.2227 62.3733 89.8843 61.8797C88.6676 60.1046 86.8324 58.9095 84.7169 58.5149C82.6017 58.1188 80.4586 58.5723 78.6838 59.7893L57.9542 73.9977C56.1791 75.2144 54.9841 77.0496 54.5892 79.1651C54.1942 81.2806 54.6469 83.4231 55.8636 85.1982C57.423 87.4734 59.9511 88.6974 62.521 88.6974C64.0898 88.6974 65.6748 88.2407 67.0641 87.2888L71.6273 84.1611C70.7517 87.0797 70.2791 90.1708 70.2791 93.3709C70.2791 94.7311 70.3661 96.0803 70.534 97.4127C55.7414 96.8552 43.8785 84.6495 43.8785 69.723C43.8785 64.5351 45.3082 59.5154 48.0208 55.1411C57.4778 54.2815 65.7624 49.3043 71.0634 42.0208C71.2395 42.0176 71.4135 42.0111 71.5904 42.0111C76.8905 42.0111 82.0412 43.5114 86.4855 46.35C90.815 49.1153 94.2885 53.0138 96.5294 57.624C96.9097 58.4059 97.6925 58.8612 98.5072 58.8612C98.8295 58.8612 99.1567 58.79 99.4661 58.6394C100.557 58.1089 101.012 56.794 100.482 55.7027C98.1524 50.9118 94.6726 46.7885 90.3615 43.6781C90.244 42.6366 90.1811 41.5813 90.1811 40.531C90.1811 33.3304 92.9297 26.5078 97.9204 21.3205C102.89 16.1554 109.559 13.1467 116.702 12.8452C124.499 15.0047 131.507 19.5348 136.756 25.9819C137.19 26.5151 137.823 26.792 138.461 26.792C138.949 26.792 139.44 26.6305 139.847 26.2986C140.788 25.5325 140.93 24.1482 140.164 23.2072C131.785 12.9167 119.377 7.01453 106.121 7.01453C94.4238 7.01453 83.2125 11.7076 74.9994 19.9655C66.7863 11.7073 55.575 7.01453 43.8779 7.01453C39.4582 7.01453 35.0953 7.6699 30.9103 8.96277C29.7507 9.32107 29.1012 10.5512 29.4595 11.7108C29.8178 12.8701 31.0479 13.5199 32.2075 13.1616C35.9719 11.9985 39.8985 11.4091 43.8779 11.4091C54.8405 11.4091 65.3273 15.9914 72.7881 24.0082C72.3431 38.9021 60.0896 50.8816 45.0899 50.8816C29.8096 50.8816 17.378 38.4498 17.378 23.1694C17.378 22.6415 17.3985 22.1121 17.4281 21.5847C19.5917 19.6283 21.9858 17.893 24.5892 16.4326C25.6477 15.839 26.0241 14.4996 25.4306 13.4411C24.8367 12.3832 23.4976 12.0058 22.4394 12.6C8.59834 20.3648 0 35.0379 0 50.8927C0 56.4135 0.74502 61.9025 2.21426 67.2076C2.48379 68.1808 3.36768 68.8189 4.33066 68.8189C4.5249 68.8189 4.72236 68.7928 4.91836 68.7386C6.08789 68.4149 6.77344 67.2044 6.44941 66.0348C5.38828 62.2034 4.74727 58.3948 4.50586 54.4819C8.16914 48.9272 13.5967 44.9253 19.9371 43.0986C25.4077 49.9889 33.6439 54.5877 42.9521 55.2032C40.8946 59.2526 39.7254 63.6893 39.5206 68.267C39.3867 68.2491 39.2496 68.2415 39.1102 68.2485C37.5583 68.3396 35.2834 67.3957 34.1139 65.477C33.4819 64.4408 32.1302 64.1121 31.0939 64.7449C30.0577 65.3765 29.7299 66.7286 30.3615 67.7648C32.1454 70.6907 35.6004 72.6492 38.8957 72.6492C39.1644 72.6492 39.3996 72.634 39.6155 72.6102C39.8106 74.7885 40.2237 76.9046 40.8337 78.9366C32.1712 75.7652 19.9579 76.3614 12.6319 80.7234C11.3101 78.3879 10.1549 76.0661 9.16641 73.7534C8.68945 72.6372 7.39805 72.1192 6.28213 72.5968C5.16621 73.0737 4.64854 74.3651 5.12549 75.481C9.63516 86.0305 17.1489 96.4725 28.0963 107.404C38.8649 118.157 52.996 129.422 71.2969 141.841C72.4219 142.604 73.7109 142.986 75.0003 142.986C76.2894 142.986 77.579 142.604 78.7037 141.841C103.906 124.738 121.669 109.418 133.007 95.0071C144.441 80.4715 150 66.0416 150 50.8927C150 43.9142 148.409 37.2422 145.272 31.0614ZM104.243 11.4559C100.731 13.1065 97.5158 15.4025 94.754 18.2733C88.9717 24.2836 85.7871 32.1879 85.7871 40.5307C85.7871 40.6614 85.7921 40.7924 85.7938 40.9233C82.0298 39.0647 77.935 37.9667 73.7218 37.6889C75.82 33.5683 77.0549 28.9377 77.1853 24.0363C84.2206 16.4616 93.9548 11.9475 104.243 11.4559ZM4.55449 47.4038C5.25234 39.5566 8.2834 32.1747 13.1238 26.1498C13.5642 30.9099 15.0472 35.3721 17.3432 39.3052C12.4664 40.9485 8.10117 43.7218 4.55449 47.4038ZM140.118 63.7019C142.105 61.7953 143.814 59.6774 145.228 57.3928C144.08 67.2457 140.291 76.8668 133.762 86.5286C132.531 80.8315 129.797 75.716 126.003 71.6027C131.285 70.2363 136.106 67.5507 140.118 63.7019ZM64.58 83.6639C62.9142 84.8054 60.6305 84.3794 59.4888 82.7136C58.9359 81.9067 58.7303 80.9329 58.9096 79.9714C59.0892 79.0098 59.6323 78.1758 60.4392 77.6226L81.1687 63.4142C81.9762 62.8608 82.9503 62.6551 83.9109 62.8347C84.8725 63.014 85.7066 63.5575 86.2597 64.3643C86.4706 64.6717 86.6241 65.0024 86.7316 65.3481C81.9891 68.008 77.9871 71.8362 75.1178 76.4408L64.58 83.6639ZM43.4818 85.2231C44.3979 86.8775 45.4556 88.4429 46.6389 89.9027C41.4817 94.7701 34.7903 97.4343 27.6451 97.4343C26.6367 97.4343 25.6248 97.3766 24.6275 97.2688C20.8169 92.9343 17.5825 88.6802 14.8954 84.4781C22.3336 80.0291 36.8285 80.2802 43.4818 85.2231ZM28.8 101.807C36.6337 101.534 43.938 98.4864 49.6313 93.1218C51.4348 94.8155 53.4322 96.3047 55.5885 97.5492C49.2214 101.224 44.2491 107.023 41.6068 113.897C36.8514 109.781 32.589 105.758 28.8 101.807ZM76.2355 138.205C75.496 138.706 74.5034 138.706 73.7643 138.204C62.8521 130.799 53.3587 123.74 45.1922 116.94C47.6256 109.339 53.3101 103.073 60.6618 99.9129C64.0201 101.132 67.638 101.806 71.4073 101.827C72.7638 106.811 75.3158 111.424 78.9146 115.278C83.3153 119.991 88.9506 123.225 95.1267 124.651C89.3777 129.042 83.0895 133.553 76.2355 138.205ZM118.446 104.633C114.369 100.312 108.614 97.8674 102.386 97.8674C95.5195 97.8677 89.2298 100.838 85.1282 106.017C84.375 106.968 84.5356 108.351 85.4868 109.104C86.4384 109.857 87.8203 109.697 88.5735 108.745C91.8363 104.625 96.8707 102.262 102.386 102.262C107.41 102.262 112.031 104.228 115.281 107.692C110.718 112.001 105.587 116.418 99.8643 120.962C93.0838 120.351 86.8002 117.283 82.1271 112.279C77.3212 107.132 74.6742 100.416 74.6742 93.3703C74.6742 78.0899 87.1058 65.6584 102.386 65.6584C117.062 65.6584 129.154 77.0543 130.044 91.6553C129.88 91.8665 129.719 92.0777 129.553 92.2892C126.384 96.3173 122.687 100.425 118.446 104.633Z" fill="#004679"/>
<path d="M65.4014 107.075C64.3833 107.075 63.3925 107.332 62.5145 107.807C61.6367 107.332 60.6456 107.075 59.6275 107.075C56.2842 107.075 53.564 109.795 53.564 113.139C53.564 117.549 57.3488 120.712 61.0499 123.223C61.4946 123.526 62.0044 123.677 62.5142 123.677C63.0236 123.677 63.5331 123.526 63.9775 123.224C67.6798 120.712 71.4644 117.548 71.4644 113.139C71.4649 109.795 68.7447 107.075 65.4014 107.075ZM62.5147 118.884C58.5028 115.978 57.9591 114.294 57.9591 113.139C57.9591 112.218 58.7079 111.47 59.6281 111.47C60.1104 111.47 60.553 111.669 60.8744 112.029C61.2913 112.497 61.8881 112.765 62.5147 112.765C63.1414 112.765 63.7382 112.497 64.1551 112.029C64.4768 111.669 64.9191 111.47 65.4014 111.47C66.3216 111.47 67.0704 112.219 67.0704 113.139C67.0704 114.294 66.5267 115.978 62.5147 118.884Z" fill="#004679"/>
<path d="M103.365 43.8539C103.025 42.689 101.805 42.0202 100.639 42.3618C99.4743 42.7025 98.8063 43.9227 99.1471 45.0876C101.566 53.3557 108.924 58.698 117.893 58.6983H117.893C126.861 58.6983 134.22 53.3554 136.639 45.0879C136.98 43.923 136.312 42.7025 135.148 42.3618C133.981 42.0202 132.762 42.6893 132.422 43.8536C130.165 51.5669 123.185 54.3038 117.893 54.3038C112.601 54.3038 105.621 51.5669 103.365 43.8539Z" fill="#004679"/>
<path d="M24.1279 26.2157C23.7119 26.7516 23.5663 27.4497 23.7345 28.1071C26.462 38.7882 34.8447 45.6896 45.0907 45.6896C55.3367 45.6896 63.7194 38.7879 66.4467 28.1071C66.6145 27.4497 66.4692 26.7516 66.0532 26.2157C65.6369 25.6799 64.9965 25.3664 64.318 25.3664H25.8635C25.185 25.3661 24.5442 25.6799 24.1279 26.2157ZM61.3013 29.7606C58.4838 36.854 52.366 41.2948 45.0907 41.2948C37.8151 41.2948 31.6974 36.854 28.8799 29.7606H61.3013Z" fill="#004679"/>
<path d="M112.898 37.5105V30.1063C112.898 28.8926 111.915 27.9091 110.701 27.9091C109.487 27.9091 108.504 28.8926 108.504 30.1063V37.5105C108.504 38.7243 109.487 39.7078 110.701 39.7078C111.915 39.7078 112.898 38.724 112.898 37.5105Z" fill="#004679"/>
<path d="M127.283 37.5105V30.1063C127.283 28.8926 126.299 27.9091 125.086 27.9091C123.872 27.9091 122.888 28.8926 122.888 30.1063V37.5105C122.888 38.7243 123.872 39.7078 125.086 39.7078C126.299 39.7078 127.283 38.724 127.283 37.5105Z" fill="#004679"/>
<path d="M98.1327 81.9205C96.2484 82.0251 93.4757 80.8866 92.0572 78.5595C91.4255 77.5233 90.0738 77.1949 89.0372 77.8274C88.0013 78.4591 87.6735 79.8111 88.3051 80.8473C89.4114 82.662 91.0918 84.1424 92.9961 85.1051V90.351C92.9961 91.5647 93.9796 92.5482 95.1934 92.5482C96.4072 92.5482 97.3907 91.5647 97.3907 90.351V86.3056C97.5489 86.3136 97.7068 86.3229 97.8644 86.3229C98.0375 86.3229 98.2104 86.3179 98.3824 86.3083C99.5941 86.2394 100.52 85.2014 100.451 83.9897C100.382 82.7777 99.3418 81.8566 98.1327 81.9205Z" fill="#004679"/>
<path d="M115.734 77.8274C114.698 77.196 113.346 77.523 112.714 78.5595C111.295 80.886 108.524 82.0248 106.639 81.9205C105.422 81.8589 104.389 82.7783 104.32 83.9894C104.251 85.2011 105.177 86.2391 106.389 86.308C106.561 86.3176 106.733 86.3226 106.907 86.3226C107.064 86.3226 107.222 86.3132 107.38 86.3053V90.3506C107.38 91.5644 108.364 92.5479 109.578 92.5479C110.791 92.5479 111.775 91.5644 111.775 90.3506V85.105C113.679 84.1423 115.36 82.662 116.466 80.8473C117.098 79.8111 116.77 78.459 115.734 77.8274Z" fill="#004679"/>
<path d="M16.395 72.6489C19.6901 72.6489 23.1456 70.6901 24.9292 67.7645C25.5609 66.7283 25.233 65.3765 24.1968 64.7446C23.1603 64.1118 21.8085 64.4405 21.1769 65.4767C20.0073 67.3948 17.7292 68.3417 16.1806 68.2482C14.9727 68.1776 13.9309 69.1054 13.862 70.3172C13.7929 71.5289 14.7193 72.5669 15.9307 72.636C16.0851 72.6445 16.2398 72.6489 16.395 72.6489Z" fill="#004679"/>
<path d="M73.7182 48.3281C72.66 47.7337 71.3205 48.1095 70.7264 49.1677L66.7034 56.3302C66.2595 57.1204 66.3465 58.1021 66.9222 58.8023C67.3473 59.3191 67.974 59.6036 68.6194 59.6036C68.8485 59.6036 69.0799 59.5678 69.3055 59.4937L77.2737 56.874C78.4265 56.4949 79.0538 55.2533 78.6746 54.1002C78.2955 52.9473 77.0548 52.3195 75.9008 52.6992L73.3037 53.5532L74.5581 51.3199C75.1523 50.262 74.7764 48.9225 73.7182 48.3281Z" fill="#004679"/>
<path d="M54.4644 70.6942C54.8731 71.0294 55.3662 71.1923 55.8563 71.1923C56.4918 71.1923 57.1225 70.9177 57.5567 70.3881L62.8747 63.9014C63.4492 63.2004 63.5347 62.2189 63.0894 61.4294C62.6441 60.6401 61.7608 60.2042 60.8628 60.3337L52.7312 61.502C51.53 61.6746 50.6962 62.7885 50.8688 63.9893C51.0414 65.1908 52.1535 66.024 53.3564 65.8517L55.8917 65.4876L54.1583 67.6019C53.3889 68.5406 53.526 69.9249 54.4644 70.6942Z" fill="#004679"/>
</svg>
