<svg width="56" height="56" viewBox="0 0 56 56" fill="none" xmlns="http://www.w3.org/2000/svg">
<g clip-path="url(#clip0_25_3623)">
<path d="M35.5 42.125H34.5625V40.125H21.4375V42.125H20.5C19.9818 42.125 19.5625 42.5443 19.5625 43.0625C19.5625 43.5807 19.9818 44 20.5 44H35.5C36.0182 44 36.4375 43.5807 36.4375 43.0625C36.4375 42.5443 36.0182 42.125 35.5 42.125Z" fill="#004679"/>
<path d="M28.1328 19.5194L28 19.2539L27.8728 19.5084C27.6418 19.984 27.1741 20.0213 27.1679 20.0275L26.873 20.0715L27.0754 20.271C27.2974 20.4825 27.4067 20.8013 27.35 21.1133L27.3034 21.3962L27.5679 21.2589C27.8335 21.1207 28.1581 21.1163 28.4322 21.2589L28.6967 21.3962L28.6482 21.1023C28.5979 20.8012 28.6977 20.4944 28.9147 20.2811L29.127 20.0715L28.8322 20.0275C28.5301 19.9817 28.2692 19.7922 28.1328 19.5194Z" fill="#004679"/>
<path d="M43.0625 13.875H38.2926C38.3004 13.5632 38.3125 13.2547 38.3125 12.9375C38.3125 12.4193 37.8932 12 37.375 12H18.625C18.1068 12 17.6875 12.4193 17.6875 12.9375C17.6875 13.2547 17.6996 13.5634 17.7074 13.875H12.9375C12.4193 13.875 12 14.2943 12 14.8125V17.1874C12 22.4212 16.1919 26.6727 21.3584 26.9477C22.4359 28.4297 23.7189 29.5299 25.1711 30.1549C24.9581 34.4327 22.6884 37.3956 21.9541 38.2499H34.0444C33.3104 37.4015 31.0411 34.4562 30.8281 30.1549C32.2808 29.5301 33.5643 28.4299 34.6419 26.9477C39.8081 26.6726 44 22.4211 44 17.1874V14.8125C44 14.2943 43.5807 13.875 43.0625 13.875ZM13.875 17.1874V15.75H17.8008C18.0805 19.3218 18.8931 22.4532 20.1352 24.9192C16.5948 24.1221 13.875 20.9652 13.875 17.1874ZM31.7793 20.0905L30.5772 21.2742L30.8538 22.9387C30.9124 23.2893 30.7677 23.6427 30.4802 23.8506C30.1918 24.06 29.8127 24.0879 29.4969 23.9247L28 23.1474L26.5031 23.9247C26.1864 24.0859 25.8073 24.0593 25.5199 23.8506C25.2324 23.6427 25.0878 23.2894 25.1463 22.9387L25.4228 21.2742L24.2207 20.0905C23.9628 19.8364 23.8799 19.4615 23.9873 19.1329C24.0972 18.7959 24.3883 18.5487 24.7399 18.4957L26.4079 18.2448L27.1614 16.7369C27.4782 16.1016 28.5219 16.1016 28.8387 16.7369L29.5922 18.2448L31.2603 18.4957C31.6118 18.5488 31.9029 18.796 32.0128 19.1329C32.1226 19.4707 32.032 19.8415 31.7793 20.0905ZM42.125 17.1874C42.125 20.9651 39.4052 24.1219 35.8649 24.9191C37.1069 22.4531 37.9196 19.3219 38.1992 15.75H42.125V17.1874Z" fill="#004679"/>
</g>
<defs>
<clipPath id="clip0_25_3623">
<rect width="32" height="32" fill="white" transform="translate(12 12)"/>
</clipPath>
</defs>
</svg>
