<svg width="66" height="56" viewBox="0 0 66 56" fill="none" xmlns="http://www.w3.org/2000/svg">
<g clip-path="url(#clip0_28_4440)">
<path d="M40.213 17.2384C40.0896 16.8594 39.7618 16.5831 39.3679 16.5259L35.6189 15.981L33.9417 12.5834C33.766 12.2262 33.402 12 33.0033 12C32.6047 12 32.2407 12.2262 32.0649 12.5834L30.3877 15.9811L26.6381 16.5259C26.2442 16.5832 25.9163 16.8595 25.793 17.2384C25.6697 17.6174 25.7726 18.0334 26.0582 18.3115L28.772 20.9561L28.1307 24.6901C28.0632 25.083 28.2248 25.48 28.5472 25.7141C28.8702 25.9492 29.2975 25.9782 29.6498 25.7939L33.0036 24.0308L36.3567 25.7939C36.7171 25.9829 37.1427 25.9439 37.4594 25.7141C37.7817 25.4801 37.9432 25.0831 37.8758 24.6905L37.2352 20.9561L39.9483 18.3115C40.2335 18.0334 40.3357 17.6173 40.213 17.2384Z" fill="#004679"/>
<path d="M37.1873 27.9492H28.8129C28.2348 27.9492 27.7661 28.4179 27.7661 28.996V44.0002H38.2341V28.996C38.2341 28.4179 37.7654 27.9492 37.1873 27.9492Z" fill="#004679"/>
<path d="M18.3449 32.1367C17.7668 32.1367 17.2981 32.6054 17.2981 33.1835V43.1728C17.2981 43.63 17.6687 44.0005 18.1257 44.0005H25.6725V32.1367H18.3449Z" fill="#004679"/>
<path d="M47.6552 36.3232H40.3276V43.9998H47.8744C48.3316 43.9998 48.7021 43.6292 48.7021 43.1722V37.3701C48.702 36.7919 48.2333 36.3232 47.6552 36.3232Z" fill="#004679"/>
</g>
<defs>
<clipPath id="clip0_28_4440">
<rect width="32" height="32" fill="white" transform="translate(17 12)"/>
</clipPath>
</defs>
</svg>
