<svg width="32" height="32" viewBox="0 0 32 32" fill="none" xmlns="http://www.w3.org/2000/svg">
<path fill-rule="evenodd" clip-rule="evenodd" d="M16 1.66699C23.9107 1.66699 30.3334 8.08966 30.3334 16.0003C30.3334 23.911 23.9107 30.3337 16 30.3337C8.08935 30.3337 1.66669 23.911 1.66669 16.0003C1.66669 8.08966 8.08935 1.66699 16 1.66699ZM16 3.66699C9.19335 3.66699 3.66669 9.19366 3.66669 16.0003C3.66669 22.807 9.19335 28.3337 16 28.3337C22.8067 28.3337 28.3334 22.807 28.3334 16.0003C28.3334 9.19366 22.8067 3.66699 16 3.66699Z" fill="#FF0000"/>
<path fill-rule="evenodd" clip-rule="evenodd" d="M12.04 21.3737C11.6507 21.7643 11.016 21.7643 10.6267 21.3737C10.236 20.9843 10.236 20.3497 10.6267 19.9603L19.96 10.627C20.3493 10.2363 20.984 10.2363 21.3733 10.627C21.764 11.0163 21.764 11.651 21.3733 12.0403L12.04 21.3737Z" fill="#FF0000"/>
<path fill-rule="evenodd" clip-rule="evenodd" d="M21.3733 19.9603C21.764 20.3497 21.764 20.9843 21.3733 21.3737C20.984 21.7643 20.3493 21.7643 19.96 21.3737L10.6267 12.0403C10.236 11.651 10.236 11.0163 10.6267 10.627C11.016 10.2363 11.6507 10.2363 12.04 10.627L21.3733 19.9603Z" fill="#FF0000"/>
</svg>
